<svg id="_x30_1._Facebook" xmlns="http://www.w3.org/2000/svg" width="9" height="16.685" viewBox="0 0 9 16.685">
  <path id="Icon_11_" d="M30.906,19.518H28.839c-.334,0-.439-.125-.439-.439V16.553c0-.334.125-.439.439-.439h2.067V14.276a4.638,4.638,0,0,1,.564-2.36,3.465,3.465,0,0,1,1.859-1.545,4.646,4.646,0,0,1,1.608-.271h2.046c.292,0,.418.125.418.418V12.9c0,.292-.125.418-.418.418-.564,0-1.128,0-1.691.021a.754.754,0,0,0-.856.856c-.021.626,0,1.232,0,1.879h2.422c.334,0,.459.125.459.459v2.527c0,.334-.1.439-.459.439H34.435V26.3c0,.355-.1.48-.48.48h-2.61c-.313,0-.439-.125-.439-.439Z" transform="translate(-28.4 -10.1)"/>
</svg>
