<svg id="instagram" xmlns="http://www.w3.org/2000/svg" width="16.462" height="16.462" viewBox="0 0 16.462 16.462">
  <g id="Group_45" data-name="Group 45" transform="translate(12.617 3.046)">
    <g id="Group_44" data-name="Group 44">
      <path id="Path_14890" data-name="Path 14890" d="M392.8,94.739a.4.4,0,1,0,.4.4A.4.4,0,0,0,392.8,94.739Z" transform="translate(-392.401 -94.739)"/>
    </g>
  </g>
  <g id="Group_47" data-name="Group 47" transform="translate(4.688 4.688)">
    <g id="Group_46" data-name="Group 46">
      <path id="Path_14891" data-name="Path 14891" d="M149.347,145.8a3.543,3.543,0,1,0,3.543,3.543A3.547,3.547,0,0,0,149.347,145.8Z" transform="translate(-145.804 -145.804)"/>
    </g>
  </g>
  <g id="Group_49" data-name="Group 49" transform="translate(0)">
    <g id="Group_48" data-name="Group 48">
      <path id="Path_14892" data-name="Path 14892" d="M11.949,0H4.513A4.518,4.518,0,0,0,0,4.513v7.436a4.518,4.518,0,0,0,4.513,4.513h7.436a4.518,4.518,0,0,0,4.513-4.513V4.513A4.518,4.518,0,0,0,11.949,0ZM8.231,12.746a4.515,4.515,0,1,1,4.515-4.515A4.52,4.52,0,0,1,8.231,12.746Zm4.785-7.929a1.372,1.372,0,1,1,1.372-1.372A1.373,1.373,0,0,1,13.016,4.818Z"/>
    </g>
  </g>
</svg>
