<svg id="linkedin" xmlns="http://www.w3.org/2000/svg" width="16.462" height="16.462" viewBox="0 0 16.462 16.462">
  <path id="Path_14893" data-name="Path 14893" d="M19.124,18.841h0V12.8c0-2.954-.636-5.229-4.089-5.229a3.585,3.585,0,0,0-3.229,1.774h-.048V7.85H8.489V18.84H11.9V13.4c0-1.433.272-2.818,2.046-2.818,1.748,0,1.774,1.635,1.774,2.91v5.351Z" transform="translate(-2.666 -2.379)"/>
  <path id="Path_14894" data-name="Path 14894" d="M.4,7.977H3.809V18.968H.4Z" transform="translate(-0.124 -2.505)"/>
  <path id="Path_14895" data-name="Path 14895" d="M1.977,0A1.986,1.986,0,1,0,3.954,1.977,1.977,1.977,0,0,0,1.977,0Z" transform="translate(0)"/>
</svg>
