<svg xmlns="http://www.w3.org/2000/svg" width="599.294" height="533.816" viewBox="0 0 599.294 533.816">
  <path id="Path_15530" data-name="Path 15530" d="M584.627,26.945C561.12,48.3,553.3,79.253,526.187,93.507c-20.539,10.8-44.523,5.626-65.861-2.758s-42.27-19.9-64.725-21.471-47.673,10.034-55.655,34.791c-8.718,27.037,5.291,60.871-8.413,84.873-12,21.011-37.58,21.549-59.061,20.289s-47.347.607-58.046,22.569c-10.075,20.679-.6,48.439-9.531,69.836-11.186,26.809-42.655,28.22-67.947,25.821s-56.794-.835-67.831,26.059c-4.423,10.779-4.212,23.327-6.938,34.86-6.192,26.2-26.265,43.786-41.908,63.8s-27.655,50.8-14.914,73.489c11.489,20.456,35.988,22.158,56.817,21.719,40.637-.857,522.455-5.08,522.455-5.08V26.945h0" transform="translate(0 -13.623)" fill="#00a05a" opacity="0.203"/>
</svg>
