<svg id="twitter" xmlns="http://www.w3.org/2000/svg" width="18.924" height="16.462" viewBox="0 0 18.924 16.462">
  <g id="Group_50" data-name="Group 50" transform="translate(0 0)">
    <path id="Path_14896" data-name="Path 14896" d="M18.841,36.117a.564.564,0,0,0-.53-.267l-.944.082.9-1.818a.564.564,0,0,0-.754-.758l-2.387,1.169a4.033,4.033,0,0,0-4.585.607,4.882,4.882,0,0,0-1.511,3.925A8.216,8.216,0,0,1,2.542,34.64a.564.564,0,0,0-.95-.067,3.872,3.872,0,0,0-.246,4.059c-.186-.047-.383-.11-.6-.183a.564.564,0,0,0-.736.627,4.746,4.746,0,0,0,2.7,3.59,4.74,4.74,0,0,1-.592.164.564.564,0,0,0-.3.938,7.642,7.642,0,0,0,3.718,1.979c-1.25.979-2.6,1.142-4.559,1.075a.564.564,0,0,0-.437.943c.817.9,3.794,1.916,6.924,1.992q.186,0,.379,0a10.031,10.031,0,0,0,7.186-2.556,10.168,10.168,0,0,0,2.933-5.4,10.5,10.5,0,0,0,.019-3.538c-.007-.046-.014-.094-.02-.137l.883-1.423A.564.564,0,0,0,18.841,36.117Z" transform="translate(-0.001 -33.299)"/>
  </g>
</svg>
